<?xml version="1.0"?>
<!DOCTYPE svg PUBLIC "-//W3C//DTD SVG 1.1//EN" "http://www.w3.org/Graphics/SVG/1.1/DTD/svg11.dtd">
<svg width="26.520000000000003mm" height="49.329760105519384mm" viewBox="0 0 26.520000000000003 49.329760105519384" xmlns="http://www.w3.org/2000/svg" version="1.1">
<g id="Chamfer" transform="translate(13.260000,49.069760) scale(1,-1)">
<circle cx="0.0" cy="38.0" r="2.4" stroke="#191919" stroke-width="0.35 px" style="stroke-width:0.35;stroke-miterlimit:4;stroke-dasharray:none;stroke-linecap:square;fill:#cccccc"/>
<circle cx="0.0" cy="38.0" r="2.4" stroke="#191919" stroke-width="0.35 px" style="stroke-width:0.35;stroke-miterlimit:4;stroke-dasharray:none;stroke-linecap:square;fill:#cccccc"/>
<circle cx="0.0" cy="38.0" r="2.5" stroke="#191919" stroke-width="0.35 px" style="stroke-width:0.35;stroke-miterlimit:4;stroke-dasharray:none;stroke-linecap:square;fill:#cccccc"/>
<circle cx="0.0" cy="38.0" r="1.5" stroke="#191919" stroke-width="0.35 px" style="stroke-width:0.35;stroke-miterlimit:4;stroke-dasharray:none;stroke-linecap:square;fill:#cccccc"/>
<path id="Chamfer_f0004"  d="M 2.127724054437655 36.687448915977974 L 5.852694889034645 8.129339184067764 L 5.852694889034639 8.129339184067769 L 2.127724054437653 36.68744891597798 L 2.1277240544376554 36.687448915977974 Z " stroke="#191919" stroke-width="0.35 px" style="stroke-width:0.35;stroke-miterlimit:4;stroke-dasharray:none;stroke-linecap:square;fill:#cccccc;fill-opacity:1.0;fill-rule: evenodd"/>
<path id="Chamfer_f0005"  d="M -2.0622105399441746 36.41655827737705 A 2.6 2.6 0 0 1 2.06221 36.4166Q 2.122300923313473 36.65232667697046 2.1277240544376936 36.687448915978045 A 2.5 2.5 0 0 0 -2.12772 36.6874Q -2.122300924675125 36.65232667501162 -2.0622105381526694 36.41655827504386 Z " stroke="#191919" stroke-width="0.35 px" style="stroke-width:0.35;stroke-miterlimit:4;stroke-dasharray:none;stroke-linecap:square;fill:#cccccc;fill-opacity:1.0;fill-rule: evenodd"/>
<path id="Chamfer_f0006"  d="M -2.1277240544376568 36.68744891597797 L -5.85269488903464 8.129339184067767 L -5.852694889034639 8.129339184067769 L -2.127724054437654 36.68744891597798 L -2.1277240544376554 36.687448915977974 Z " stroke="#191919" stroke-width="0.35 px" style="stroke-width:0.35;stroke-miterlimit:4;stroke-dasharray:none;stroke-linecap:square;fill:#cccccc;fill-opacity:1.0;fill-rule: evenodd"/>
<path id="Chamfer_f0007"  d="M 2.706859601512849 39.98160737982636 L 9.043051718929554 4.632325040554221 A 0.75 0.75 0 0 0 8.30482 3.75L -8.30481728215332 3.75 A 0.75 0.75 0 0 0 -9.04305 4.63233L -2.7068596015128508 39.981607379826364 A 2.75 2.75 0 0 0 2.70686 39.9816Z M 2.5000000000000018 38.0 A 2.5 2.5 0 0 0 2.12772 36.6874L 5.852694889034639 8.129339184067767 A 1 1 0 0 0 4.86109 7L -4.861094477848418 7.0 A 1 1 0 0 0 -5.85269 8.12934L -2.127724054437654 36.68744891597798 A 2.5 2.5 0 1 0 2.5 38Z " stroke="#191919" stroke-width="0.35 px" style="stroke-width:0.35;stroke-miterlimit:4;stroke-dasharray:none;stroke-linecap:square;fill:#cccccc;fill-opacity:1.0;fill-rule: evenodd"/>
<circle cx="0.0" cy="38.0" r="1.5" stroke="#191919" stroke-width="0.35 px" style="stroke-width:0.35;stroke-miterlimit:4;stroke-dasharray:none;stroke-linecap:square;fill:#cccccc"/>
<path id="Chamfer_f0009"  d="M 4.861094477848416 7.0 A 1 1 0 0 1 5.85269 8.12934L 5.852694889034639 8.129339184067769 A 1 1 0 0 0 4.86109 7L 4.861094477848417 7.0 Z " stroke="#191919" stroke-width="0.35 px" style="stroke-width:0.35;stroke-miterlimit:4;stroke-dasharray:none;stroke-linecap:square;fill:#cccccc;fill-opacity:1.0;fill-rule: evenodd"/>
<path id="Chamfer_f0010"  d="M 2.127724054437655 36.687448915977974 Q 2.122300923313473 36.652326676970446 2.0622105417356806 36.41655827971022 L 5.753534847916022 8.116405265660987 M 5.753534847916022 8.116405265660987 L 5.852694889034644 8.129339184067764 L 2.127724054437655 36.687448915977974 Z " stroke="#191919" stroke-width="0.35 px" style="stroke-width:0.35;stroke-miterlimit:4;stroke-dasharray:none;stroke-linecap:square;fill:#cccccc;fill-opacity:1.0;fill-rule: evenodd"/>
<path id="Chamfer_f0011"  d="M -5.852694889034639 8.129339184067767 M -5.852694889034638 8.129339184067767 L -5.753534847916017 8.11640526566099 L -2.0622105399441746 36.41655827737705 Q -2.122300924675125 36.65232667501162 -2.127724054437687 36.68744891597803 L -5.85269488903464 8.129339184067767 Z " stroke="#191919" stroke-width="0.35 px" style="stroke-width:0.35;stroke-miterlimit:4;stroke-dasharray:none;stroke-linecap:square;fill:#cccccc;fill-opacity:1.0;fill-rule: evenodd"/>
<path id="Chamfer_f0012"  d="M 4.861094477848417 7.1 L -4.861094477848418 7.1 A 0.9 0.9 0 0 0 -5.75353 8.11641L -2.0622105399441746 36.41655827737705 A 2.6 2.6 0 0 1 2.06221 36.4166L 5.753534847916022 8.116405265660987 A 0.9 0.9 0 0 0 4.86109 7.1Z " stroke="#191919" stroke-width="0.35 px" style="stroke-width:0.35;stroke-miterlimit:4;stroke-dasharray:none;stroke-linecap:square;fill:#cccccc;fill-opacity:1.0;fill-rule: evenodd"/>
<path id="Chamfer_f0013"  d="M -5.852694889034639 8.129339184067769 A 1 1 0 0 1 -4.86109 7L -4.861094477848417 7.0 A 1 1 0 0 0 -5.85269 8.12934L -5.852694889034639 8.129339184067769 Z " stroke="#191919" stroke-width="0.35 px" style="stroke-width:0.35;stroke-miterlimit:4;stroke-dasharray:none;stroke-linecap:square;fill:#cccccc;fill-opacity:1.0;fill-rule: evenodd"/>
<path id="Chamfer_f0014"  d="M -9.289129864521632 4.676433387405638 M -9.289129864521632 4.676433387405638 L -9.043051718929554 4.632325040554227 L -2.7068596015128508 39.981607379826364 M -2.7068596015128508 39.981607379826364 L -2.9529377471049285 40.025715726677774 L -9.289129864521632 4.676433387405638 Z " stroke="#191919" stroke-width="0.35 px" style="stroke-width:0.35;stroke-miterlimit:4;stroke-dasharray:none;stroke-linecap:square;fill:#cccccc;fill-opacity:1.0;fill-rule: evenodd"/>
<path id="Chamfer_f0015"  d="M -8.30481728215332 3.75 A 0.75 0.75 0 0 0 -9.04305 4.63233M -9.043051718929554 4.632325040554227 L -9.289129864521632 4.676433387405638 A 1 1 0 0 1 -8.30482 3.5M -8.30481728215332 3.5 L -8.30481728215332 3.75 Z " stroke="#191919" stroke-width="0.35 px" style="stroke-width:0.35;stroke-miterlimit:4;stroke-dasharray:none;stroke-linecap:square;fill:#cccccc;fill-opacity:1.0;fill-rule: evenodd"/>
<path id="Chamfer_f0016"  d="M 8.30481728215332 3.5 M 8.30481728215332 3.5 L 8.30481728215332 3.75 L -8.30481728215332 3.75 M -8.30481728215332 3.75 L -8.30481728215332 3.5 L 8.30481728215332 3.5 Z " stroke="#191919" stroke-width="0.35 px" style="stroke-width:0.35;stroke-miterlimit:4;stroke-dasharray:none;stroke-linecap:square;fill:#cccccc;fill-opacity:1.0;fill-rule: evenodd"/>
<path id="Chamfer_f0017"  d="M 9.043051718929554 4.632325040554221 A 0.75 0.75 0 0 0 8.30482 3.75M 8.30481728215332 3.75 L 8.30481728215332 3.5 A 1 1 0 0 1 9.28913 4.67643M 9.289129864521632 4.676433387405631 L 9.043051718929554 4.632325040554221 Z " stroke="#191919" stroke-width="0.35 px" style="stroke-width:0.35;stroke-miterlimit:4;stroke-dasharray:none;stroke-linecap:square;fill:#cccccc;fill-opacity:1.0;fill-rule: evenodd"/>
<path id="Chamfer_f0018"  d="M 2.952937747104928 40.02571572667777 M 2.9529377471049267 40.02571572667777 L 2.706859601512849 39.98160737982636 L 9.043051718929554 4.632325040554221 M 9.043051718929554 4.632325040554221 L 9.289129864521632 4.676433387405631 L 2.9529377471049285 40.02571572667777 Z " stroke="#191919" stroke-width="0.35 px" style="stroke-width:0.35;stroke-miterlimit:4;stroke-dasharray:none;stroke-linecap:square;fill:#cccccc;fill-opacity:1.0;fill-rule: evenodd"/>
<path id="Chamfer_f0019"  d="M -2.7068596015128508 39.981607379826364 A 2.75 2.75 0 0 0 2.70686 39.9816M 2.706859601512849 39.98160737982636 L 2.9529377471049267 40.02571572667777 A 3 3 0 0 1 -2.95294 40.0257M -2.9529377471049285 40.025715726677774 L -2.7068596015128508 39.981607379826364 Z " stroke="#191919" stroke-width="0.35 px" style="stroke-width:0.35;stroke-miterlimit:4;stroke-dasharray:none;stroke-linecap:square;fill:#cccccc;fill-opacity:1.0;fill-rule: evenodd"/>
<path id="Chamfer_f0020"  d="M 4.861094477848418 7.0 L -4.861094477848418 7.0 L -4.861094477848417 7.0 L 4.861094477848418 7.0 L 4.861094477848417 7.0 Z " stroke="#191919" stroke-width="0.35 px" style="stroke-width:0.35;stroke-miterlimit:4;stroke-dasharray:none;stroke-linecap:square;fill:#cccccc;fill-opacity:1.0;fill-rule: evenodd"/>
<path id="Chamfer_f0021"  d="M 2.9319694200803905 46.467833445782816 L 13.0 -7e-15 L 13.0 0.0 L 2.9319694200803923 46.46783344578281 L 2.9319694200803905 46.46783344578281 Z " stroke="#191919" stroke-width="0.35 px" style="stroke-width:0.35;stroke-miterlimit:4;stroke-dasharray:none;stroke-linecap:square;fill:#cccccc;fill-opacity:1.0;fill-rule: evenodd"/>
<path id="Chamfer_f0022"  d="M 2.9319694200803896 46.467833445782816 A 3 3 0 0 1 -2.93197 46.4678L -2.931969420080392 46.46783344578281 A 3 3 0 0 0 2.93197 46.4678L 2.9319694200803905 46.46783344578281 Z " stroke="#191919" stroke-width="0.35 px" style="stroke-width:0.35;stroke-miterlimit:4;stroke-dasharray:none;stroke-linecap:square;fill:#cccccc;fill-opacity:1.0;fill-rule: evenodd"/>
<path id="Chamfer_f0023"  d="M -2.931969420080392 46.46783344578281 L -13.0 0.0 L -13.0 0.0 L -2.9319694200803923 46.467833445782816 L -2.931969420080392 46.46783344578281 Z " stroke="#191919" stroke-width="0.35 px" style="stroke-width:0.35;stroke-miterlimit:4;stroke-dasharray:none;stroke-linecap:square;fill:#cccccc;fill-opacity:1.0;fill-rule: evenodd"/>
<path id="Chamfer_f0024"  d="M -13.0 0.0 L 13.0 0.0 L 13.0 0.0 M 13.0 0.0 L 12.488398484060973 0.0 L -12.488398484060975 0.0 M -12.488398484060975 0.0 L -13.000000000000002 0.0 L -13.0 0.0 Z " stroke="#191919" stroke-width="0.35 px" style="stroke-width:0.35;stroke-miterlimit:4;stroke-dasharray:none;stroke-linecap:square;fill:#cccccc;fill-opacity:1.0;fill-rule: evenodd"/>
<path id="Chamfer_f0025"  d="M 5.753534847916022 8.116405265660987 A 0.9 0.9 0 0 0 4.86109 7.1M 4.861094477848417 7.1 L 4.861094477848417 7.0 A 1 1 0 0 1 5.85269 8.12934M 5.852694889034644 8.129339184067764 L 5.753534847916022 8.116405265660987 Z " stroke="#191919" stroke-width="0.35 px" style="stroke-width:0.35;stroke-miterlimit:4;stroke-dasharray:none;stroke-linecap:square;fill:#cccccc;fill-opacity:1.0;fill-rule: evenodd"/>
<path id="Chamfer_f0026"  d="M -4.861094477848418 7.1 A 0.9 0.9 0 0 0 -5.75353 8.11641M -5.753534847916017 8.11640526566099 L -5.852694889034638 8.129339184067767 A 1 1 0 0 1 -4.86109 7M -4.861094477848418 7.0 L -4.861094477848418 7.1 Z " stroke="#191919" stroke-width="0.35 px" style="stroke-width:0.35;stroke-miterlimit:4;stroke-dasharray:none;stroke-linecap:square;fill:#cccccc;fill-opacity:1.0;fill-rule: evenodd"/>
<path id="Chamfer_f0027"  d="M 4.861094477848418 7.0 M 4.861094477848417 7.0 L 4.861094477848417 7.1 L -4.861094477848418 7.1 M -4.861094477848418 7.1 L -4.861094477848418 7.0 L 4.861094477848418 7.0 Z " stroke="#191919" stroke-width="0.35 px" style="stroke-width:0.35;stroke-miterlimit:4;stroke-dasharray:none;stroke-linecap:square;fill:#cccccc;fill-opacity:1.0;fill-rule: evenodd"/>
<path id="Chamfer_f0028"  d="M -2.9529377471049285 40.025715726677774 L -9.289129864521632 4.676433387405638 L -9.289129864521628 4.676433387405638 L -2.952937747104931 40.02571572667777 L -2.952937747104934 40.02571572667777 Z " stroke="#191919" stroke-width="0.35 px" style="stroke-width:0.35;stroke-miterlimit:4;stroke-dasharray:none;stroke-linecap:square;fill:#cccccc;fill-opacity:1.0;fill-rule: evenodd"/>
<path id="Chamfer_f0029"  d="M -9.28912986452163 4.676433387405637 L -9.28912986452163 4.676433387405637 A 1 1 0 0 1 -8.30482 3.5L -8.30481728215332 3.4999999999999964 A 1 1 0 0 0 -9.28913 4.67643Z " stroke="#191919" stroke-width="0.35 px" style="stroke-width:0.35;stroke-miterlimit:4;stroke-dasharray:none;stroke-linecap:square;fill:#cccccc;fill-opacity:1.0;fill-rule: evenodd"/>
<path id="Chamfer_f0030"  d="M 8.30481728215332 3.5 L -8.30481728215332 3.5 L -8.30481728215332 3.4999999999999964 L 8.30481728215332 3.5 L 8.30481728215332 3.5 Z " stroke="#191919" stroke-width="0.35 px" style="stroke-width:0.35;stroke-miterlimit:4;stroke-dasharray:none;stroke-linecap:square;fill:#cccccc;fill-opacity:1.0;fill-rule: evenodd"/>
<path id="Chamfer_f0031"  d="M 8.30481728215332 3.5 A 1 1 0 0 1 9.28913 4.67643L 9.28912986452163 4.67643338740564 A 1 1 0 0 0 8.30482 3.5L 8.30481728215332 3.5 Z " stroke="#191919" stroke-width="0.35 px" style="stroke-width:0.35;stroke-miterlimit:4;stroke-dasharray:none;stroke-linecap:square;fill:#cccccc;fill-opacity:1.0;fill-rule: evenodd"/>
<path id="Chamfer_f0032"  d="M 9.28912986452163 4.67643338740564 L 2.952937747104928 40.02571572667777 L 2.9529377471049267 40.02571572667777 L 9.289129864521632 4.676433387405631 L 9.28912986452163 4.67643338740564 Z " stroke="#191919" stroke-width="0.35 px" style="stroke-width:0.35;stroke-miterlimit:4;stroke-dasharray:none;stroke-linecap:square;fill:#cccccc;fill-opacity:1.0;fill-rule: evenodd"/>
<path id="Chamfer_f0033"  d="M 2.9529377471049263 40.02571572667777 A 3 3 0 0 1 -2.95294 40.0257L -2.952937747104931 40.02571572667777 A 3 3 0 0 0 2.95294 40.0257L 2.9529377471049267 40.02571572667777 Z " stroke="#191919" stroke-width="0.35 px" style="stroke-width:0.35;stroke-miterlimit:4;stroke-dasharray:none;stroke-linecap:square;fill:#cccccc;fill-opacity:1.0;fill-rule: evenodd"/>
<path id="Chamfer_f0034"  d="M 2.443307850066992 46.36195677227991 L 12.488398484060973 0.0 M 12.488398484060973 0.0 L 13.0 0.0 L 2.931969420080391 46.46783344578281 M 2.931969420080389 46.467833445782816 L 2.443307850066991 46.36195677227991 Z " stroke="#191919" stroke-width="0.35 px" style="stroke-width:0.35;stroke-miterlimit:4;stroke-dasharray:none;stroke-linecap:square;fill:#cccccc;fill-opacity:1.0;fill-rule: evenodd"/>
<path id="Chamfer_f0035"  d="M 2.931969420080389 46.467833445782816 M 2.931969420080389 46.467833445782816 L 2.443307850066991 46.36195677227991 A 2.5 2.5 0 0 1 -2.44331 46.362M -2.4433078500669936 46.36195677227991 L -2.9319694200803923 46.467833445782816 A 3 3 0 0 0 2.93197 46.4678Z " stroke="#191919" stroke-width="0.35 px" style="stroke-width:0.35;stroke-miterlimit:4;stroke-dasharray:none;stroke-linecap:square;fill:#cccccc;fill-opacity:1.0;fill-rule: evenodd"/>
<path id="Chamfer_f0036"  d="M -12.488398484060975 -1e-15 L -2.443307850066994 46.36195677227991 M -2.4433078500669936 46.36195677227991 L -2.9319694200803923 46.467833445782816 L -13.000000000000002 2.7873801981241975e-16 M -13.000000000000002 0.0 L -12.488398484060975 0.0 Z " stroke="#191919" stroke-width="0.35 px" style="stroke-width:0.35;stroke-miterlimit:4;stroke-dasharray:none;stroke-linecap:square;fill:#cccccc;fill-opacity:1.0;fill-rule: evenodd"/>
<path id="Chamfer_f0037"  d="M -12.488398484060975 -1e-15 L 12.488398484060973 0.0 L 2.4433078500669922 46.3619567722799 A 2.5 2.5 0 0 1 -2.44331 46.362L -12.488398484060975 -5.551115123125783e-17 Z M -8.30481728215332 3.4999999999999964 A 1 1 0 0 0 -9.28913 4.67643L -2.952937747104931 40.02571572667777 A 3 3 0 0 0 2.95294 40.0257L 9.28912986452163 4.676433387405639 A 1 1 0 0 0 8.30482 3.5L -8.30481728215332 3.4999999999999964 Z " stroke="#191919" stroke-width="0.35 px" style="stroke-width:0.35;stroke-miterlimit:4;stroke-dasharray:none;stroke-linecap:square;fill:#cccccc;fill-opacity:1.0;fill-rule: evenodd"/>
<title>b'Chamfer'</title>
</g>
<g id="Extrude" transform="translate(13.260000,49.069760) scale(1,-1)">
<path id="Extrude_f0000"  d="M -2.08128547125572 16.05962441815435 L -2.08128547125572 16.05962441815435 Q -1.699380727880083 16.066290590246364 -1.0989515018890295 15.900283137002589 L -1.0989515018890295 15.900283137002589 Q -1.699380727880083 16.066290590246364 -2.08128547125572 16.05962441815435 Z " stroke="#000000" stroke-width="0.35 px" style="stroke-width:0.35;stroke-miterlimit:4;stroke-dasharray:none;stroke-linecap:square;fill:#ffffff;fill-opacity:1.0;fill-rule: evenodd"/>
<path id="Extrude_f0001"  d="M -2.713301415850351 15.74882902766775 L -2.713301415850351 15.74882902766775 Q -2.472942860428528 16.05278801299672 -2.08128547125572 16.05962441815435 L -2.08128547125572 16.05962441815435 Q -2.472942860428528 16.05278801299672 -2.713301415850351 15.74882902766775 Z " stroke="#000000" stroke-width="0.35 px" style="stroke-width:0.35;stroke-miterlimit:4;stroke-dasharray:none;stroke-linecap:square;fill:#ffffff;fill-opacity:1.0;fill-rule: evenodd"/>
<path id="Extrude_f0002"  d="M -2.9336792609962297 15.062310830798326 L -2.9336792609962297 15.062310830798326 Q -2.9407091128193255 15.465050772013376 -2.713301415850351 15.74882902766775 L -2.713301415850351 15.74882902766775 Q -2.9407091128193255 15.465050772013376 -2.9336792609962297 15.062310830798326 Z " stroke="#000000" stroke-width="0.35 px" style="stroke-width:0.35;stroke-miterlimit:4;stroke-dasharray:none;stroke-linecap:square;fill:#ffffff;fill-opacity:1.0;fill-rule: evenodd"/>
<path id="Extrude_f0003"  d="M -2.679069410569361 14.397386689394846 L -2.679069410569361 14.397386689394846 Q -2.927055647170617 14.682844248871984 -2.9336792609962297 15.062310830798326 L -2.9336792609962297 15.062310830798326 Q -2.927055647170617 14.682844248871984 -2.679069410569361 14.397386689394846 Z " stroke="#000000" stroke-width="0.35 px" style="stroke-width:0.35;stroke-miterlimit:4;stroke-dasharray:none;stroke-linecap:square;fill:#ffffff;fill-opacity:1.0;fill-rule: evenodd"/>
<path id="Extrude_f0004"  d="M -2.0513264220435605 14.101928915679961 L -2.0513264220435605 14.101928915679961 Q -2.420818707131887 14.095479403853268 -2.679069410569361 14.397386689394846 L -2.679069410569361 14.397386689394846 Q -2.420818707131887 14.095479403853268 -2.0513264220435605 14.101928915679961 Z " stroke="#000000" stroke-width="0.35 px" style="stroke-width:0.35;stroke-miterlimit:4;stroke-dasharray:none;stroke-linecap:square;fill:#ffffff;fill-opacity:1.0;fill-rule: evenodd"/>
<path id="Extrude_f0005"  d="M -1.4244034606128397 14.425051647921062 L -1.4244034606128397 14.425051647921062 Q -1.6685350745045446 14.108610563505215 -2.0513264220435605 14.101928915679961 L -2.0513264220435605 14.101928915679961 Q -1.6685350745045446 14.108610563505215 -1.4244034606128397 14.425051647921062 Z " stroke="#000000" stroke-width="0.35 px" style="stroke-width:0.35;stroke-miterlimit:4;stroke-dasharray:none;stroke-linecap:square;fill:#ffffff;fill-opacity:1.0;fill-rule: evenodd"/>
<path id="Extrude_f0006"  d="M -1.2033335798112605 15.1100298943045 L -1.2033335798112605 15.1100298943045 Q -1.1964933057203235 14.718150854090847 -1.4244034606128397 14.425051647921062 L -1.4244034606128397 14.425051647921062 Q -1.1964933057203235 14.718150854090847 -1.2033335798112605 15.1100298943045 Z " stroke="#000000" stroke-width="0.35 px" style="stroke-width:0.35;stroke-miterlimit:4;stroke-dasharray:none;stroke-linecap:square;fill:#ffffff;fill-opacity:1.0;fill-rule: evenodd"/>
<path id="Extrude_f0007"  d="M -0.1831041285422379 14.786613181267914 L -0.1831041285422379 14.786613181267914 Q -0.7691646111826089 15.043997775497186 -1.2033335798112605 15.1100298943045 L -1.2033335798112605 15.1100298943045 Q -0.7691646111826089 15.043997775497186 -0.1831041285422379 14.786613181267914 Z " stroke="#000000" stroke-width="0.35 px" style="stroke-width:0.35;stroke-miterlimit:4;stroke-dasharray:none;stroke-linecap:square;fill:#ffffff;fill-opacity:1.0;fill-rule: evenodd"/>
<path id="Extrude_f0008"  d="M 1.3413361501360683 13.21707037593076 L 1.3413361501360683 13.21707037593076 Q 1.3253961449015317 14.130272664211446 -0.1831041285422379 14.786613181267914 L -0.1831041285422379 14.786613181267914 Q 1.3253961449015317 14.130272664211446 1.3413361501360683 13.21707037593076 Z " stroke="#000000" stroke-width="0.35 px" style="stroke-width:0.35;stroke-miterlimit:4;stroke-dasharray:none;stroke-linecap:square;fill:#ffffff;fill-opacity:1.0;fill-rule: evenodd"/>
<path id="Extrude_f0009"  d="M 1.2115984500490753 12.799748626684064 L 1.2115984500490753 12.799748626684064 Q 1.3458318506415372 12.959511866469072 1.3413361501360683 13.21707037593076 L 1.3413361501360683 13.21707037593076 Q 1.3458318506415372 12.959511866469072 1.2115984500490753 12.799748626684064 Z " stroke="#000000" stroke-width="0.35 px" style="stroke-width:0.35;stroke-miterlimit:4;stroke-dasharray:none;stroke-linecap:square;fill:#ffffff;fill-opacity:1.0;fill-rule: evenodd"/>
<path id="Extrude_f0010"  d="M 0.8166442695812448 12.626122308678465 L 0.8166442695812448 12.626122308678465 Q 1.0706563623894165 12.630556106250985 1.2115984500490753 12.799748626684064 L 1.2115984500490753 12.799748626684064 Q 1.0706563623894165 12.630556106250985 0.8166442695812448 12.626122308678465 Z " stroke="#000000" stroke-width="0.35 px" style="stroke-width:0.35;stroke-miterlimit:4;stroke-dasharray:none;stroke-linecap:square;fill:#ffffff;fill-opacity:1.0;fill-rule: evenodd"/>
<path id="Extrude_f0011"  d="M 0.33703409048830557 12.704220925459673 L 0.33703409048830557 12.704220925459673 Q 0.5925550672871249 12.622210817102708 0.8166442695812448 12.626122308678465 L 0.8166442695812448 12.626122308678465 Q 0.5925550672871249 12.622210817102708 0.33703409048830557 12.704220925459673 Z " stroke="#000000" stroke-width="0.35 px" style="stroke-width:0.35;stroke-miterlimit:4;stroke-dasharray:none;stroke-linecap:square;fill:#ffffff;fill-opacity:1.0;fill-rule: evenodd"/>
<path id="Extrude_f0012"  d="M -2.780496515227733 13.602972373053726 L -2.780496515227733 13.602972373053726 L 0.33703409048830557 12.704220925459673 L 0.33703409048830557 12.704220925459673 L -2.780496515227733 13.602972373053726 Z " stroke="#000000" stroke-width="0.35 px" style="stroke-width:0.35;stroke-miterlimit:4;stroke-dasharray:none;stroke-linecap:square;fill:#ffffff;fill-opacity:1.0;fill-rule: evenodd"/>
<path id="Extrude_f0013"  d="M -2.733013096722037 10.882649148765168 L -2.733013096722037 10.882649148765168 L -2.780496515227733 13.602972373053726 L -2.780496515227733 13.602972373053726 L -2.733013096722037 10.882649148765168 Z " stroke="#000000" stroke-width="0.35 px" style="stroke-width:0.35;stroke-miterlimit:4;stroke-dasharray:none;stroke-linecap:square;fill:#ffffff;fill-opacity:1.0;fill-rule: evenodd"/>
<path id="Extrude_f0014"  d="M -1.8876477054774354 10.415388878144633 L -1.8876477054774354 10.415388878144633 L -2.733013096722037 10.882649148765168 L -2.733013096722037 10.882649148765168 L -1.8876477054774354 10.415388878144633 Z " stroke="#000000" stroke-width="0.35 px" style="stroke-width:0.35;stroke-miterlimit:4;stroke-dasharray:none;stroke-linecap:square;fill:#ffffff;fill-opacity:1.0;fill-rule: evenodd"/>
<path id="Extrude_f0015"  d="M -1.9182470990211127 12.168426960186368 L -1.9182470990211127 12.168426960186368 L -1.8876477054774354 10.415388878144633 L -1.8876477054774354 10.415388878144633 L -1.9182470990211127 12.168426960186368 Z " stroke="#000000" stroke-width="0.35 px" style="stroke-width:0.35;stroke-miterlimit:4;stroke-dasharray:none;stroke-linecap:square;fill:#ffffff;fill-opacity:1.0;fill-rule: evenodd"/>
<path id="Extrude_f0016"  d="M 0.4326862593053571 11.479565111205568 L 0.4326862593053571 11.479565111205568 L -1.9182470990211127 12.168426960186368 L -1.9182470990211127 12.168426960186368 L 0.4326862593053571 11.479565111205568 Z " stroke="#000000" stroke-width="0.35 px" style="stroke-width:0.35;stroke-miterlimit:4;stroke-dasharray:none;stroke-linecap:square;fill:#ffffff;fill-opacity:1.0;fill-rule: evenodd"/>
<path id="Extrude_f0017"  d="M 0.9587375739341457 11.395625570260671 L 0.9587375739341457 11.395625570260671 Q 0.7031739238400603 11.391164690154987 0.4326862593053571 11.479565111205568 L 0.4326862593053571 11.479565111205568 Q 0.7031739238400603 11.391164690154987 0.9587375739341457 11.395625570260671 Z " stroke="#000000" stroke-width="0.35 px" style="stroke-width:0.35;stroke-miterlimit:4;stroke-dasharray:none;stroke-linecap:square;fill:#ffffff;fill-opacity:1.0;fill-rule: evenodd"/>
<path id="Extrude_f0018"  d="M 1.7977431289913473 11.826214510260678 L 1.7977431289913473 11.826214510260678 Q 1.516189941658885 11.405355937533695 0.9587375739341457 11.395625570260671 L 0.9587375739341457 11.395625570260671 Q 1.516189941658885 11.405355937533695 1.7977431289913473 11.826214510260678 Z " stroke="#000000" stroke-width="0.35 px" style="stroke-width:0.35;stroke-miterlimit:4;stroke-dasharray:none;stroke-linecap:square;fill:#ffffff;fill-opacity:1.0;fill-rule: evenodd"/>
<path id="Extrude_f0019"  d="M 2.030160116229004 12.775679360529423 L 2.030160116229004 12.775679360529423 Q 2.0403818380323164 12.190077310617392 1.7977431289913473 11.826214510260678 L 1.7977431289913473 11.826214510260678 Q 2.0403818380323164 12.190077310617392 2.030160116229004 12.775679360529423 Z " stroke="#000000" stroke-width="0.35 px" style="stroke-width:0.35;stroke-miterlimit:4;stroke-dasharray:none;stroke-linecap:square;fill:#ffffff;fill-opacity:1.0;fill-rule: evenodd"/>
<path id="Extrude_f0020"  d="M 1.4315487273506466 14.539644302205318 L 1.4315487273506466 14.539644302205318 Q 2.010668430216481 13.892357304305662 2.030160116229004 12.775679360529423 L 2.030160116229004 12.775679360529423 Q 2.010668430216481 13.892357304305662 1.4315487273506466 14.539644302205318 Z " stroke="#000000" stroke-width="0.35 px" style="stroke-width:0.35;stroke-miterlimit:4;stroke-dasharray:none;stroke-linecap:square;fill:#ffffff;fill-opacity:1.0;fill-rule: evenodd"/>
<path id="Extrude_f0021"  d="M -0.15338088389383175 15.560708104770839 L -0.15338088389383175 15.560708104770839 Q 0.9812965312173709 15.044398462419636 1.4315487273506466 14.539644302205318 L 1.4315487273506466 14.539644302205318 Q 0.9812965312173709 15.044398462419636 -0.15338088389383175 15.560708104770839 Z " stroke="#000000" stroke-width="0.35 px" style="stroke-width:0.35;stroke-miterlimit:4;stroke-dasharray:none;stroke-linecap:square;fill:#ffffff;fill-opacity:1.0;fill-rule: evenodd"/>
<path id="Extrude_f0022"  d="M -1.0989515018890295 15.900283137002589 L -1.0989515018890295 15.900283137002589 Q -0.5818298721047324 15.75632371303067 -0.15338088389383175 15.560708104770839 L -0.15338088389383175 15.560708104770839 Q -0.5818298721047324 15.75632371303067 -1.0989515018890295 15.900283137002589 Z " stroke="#000000" stroke-width="0.35 px" style="stroke-width:0.35;stroke-miterlimit:4;stroke-dasharray:none;stroke-linecap:square;fill:#ffffff;fill-opacity:1.0;fill-rule: evenodd"/>
<path id="Extrude_f0023"  d="M -1.0989515018890295 15.900283137002589 Q -0.5818298721047324 15.75632371303067 -0.15338088389383175 15.560708104770839 Q 0.9812965312173709 15.044398462419636 1.4315487273506466 14.539644302205318 Q 2.010668430216481 13.892357304305662 2.030160116229004 12.775679360529423 Q 2.0403818380323164 12.190077310617392 1.7977431289913473 11.826214510260678 Q 1.516189941658885 11.405355937533695 0.9587375739341457 11.395625570260671 Q 0.7031739238400603 11.391164690154987 0.4326862593053571 11.479565111205568 L -1.9182470990211127 12.168426960186368 L -1.8876477054774354 10.415388878144633 L -2.733013096722037 10.882649148765168 L -2.780496515227733 13.602972373053726 L 0.33703409048830557 12.704220925459673 Q 0.5925550672871249 12.622210817102708 0.8166442695812448 12.626122308678465 Q 1.0706563623894165 12.630556106250985 1.2115984500490753 12.799748626684064 Q 1.3458318506415372 12.959511866469072 1.3413361501360683 13.21707037593076 Q 1.3253961449015317 14.130272664211446 -0.1831041285422379 14.786613181267914 Q -0.7691646111826089 15.043997775497186 -1.2033335798112605 15.1100298943045 Q -1.1964933057203235 14.718150854090847 -1.4244034606128397 14.425051647921062 Q -1.6685350745045446 14.108610563505215 -2.0513264220435605 14.101928915679961 Q -2.420818707131887 14.095479403853268 -2.679069410569361 14.397386689394846 Q -2.927055647170617 14.682844248871984 -2.9336792609962297 15.062310830798326 Q -2.9407091128193255 15.465050772013376 -2.713301415850351 15.74882902766775 Q -2.472942860428528 16.05278801299672 -2.08128547125572 16.05962441815435 Q -1.699380727880083 16.066290590246364 -1.0989515018890295 15.900283137002589 Z " stroke="#000000" stroke-width="0.35 px" style="stroke-width:0.35;stroke-miterlimit:4;stroke-dasharray:none;stroke-linecap:square;fill:#ffffff;fill-opacity:1.0;fill-rule: evenodd"/>
<path id="Extrude_f0024"  d="M -0.15338088389383175 15.560708104770839 Q 0.9812965312173709 15.044398462419636 1.4315487273506466 14.539644302205318 Q 2.010668430216481 13.892357304305662 2.030160116229004 12.775679360529423 Q 2.0403818380323164 12.190077310617392 1.7977431289913473 11.826214510260678 Q 1.516189941658885 11.405355937533695 0.9587375739341457 11.395625570260671 Q 0.7031739238400603 11.391164690154987 0.4326862593053571 11.479565111205568 L -1.9182470990211127 12.168426960186368 L -1.8876477054774354 10.415388878144633 L -2.733013096722037 10.882649148765168 L -2.780496515227733 13.602972373053726 L 0.33703409048830557 12.704220925459673 Q 0.5925550672871249 12.622210817102708 0.8166442695812448 12.626122308678465 Q 1.0706563623894165 12.630556106250985 1.2115984500490753 12.799748626684064 Q 1.3458318506415372 12.959511866469072 1.3413361501360683 13.21707037593076 Q 1.3253961449015317 14.130272664211446 -0.1831041285422379 14.786613181267914 Q -0.7691646111826089 15.043997775497186 -1.2033335798112605 15.1100298943045 Q -1.1964933057203235 14.718150854090847 -1.4244034606128397 14.425051647921062 Q -1.6685350745045446 14.108610563505215 -2.0513264220435605 14.101928915679961 Q -2.420818707131887 14.095479403853268 -2.679069410569361 14.397386689394846 Q -2.927055647170617 14.682844248871984 -2.9336792609962297 15.062310830798326 Q -2.9407091128193255 15.465050772013376 -2.713301415850351 15.74882902766775 Q -2.472942860428528 16.05278801299672 -2.08128547125572 16.05962441815435 Q -1.699380727880083 16.066290590246364 -1.0989515018890295 15.900283137002589 Q -0.5818298721047324 15.75632371303067 -0.15338088389383175 15.560708104770839 Z " stroke="#000000" stroke-width="0.35 px" style="stroke-width:0.35;stroke-miterlimit:4;stroke-dasharray:none;stroke-linecap:square;fill:#ffffff;fill-opacity:1.0;fill-rule: evenodd"/>
<path id="Extrude_f0025"  d="M 1.275731093280009 18.6014693815152 L 1.275731093280009 18.6014693815152 Q 1.5737626427213227 18.52286192084377 1.720437756081043 18.223884884746173 L 1.720437756081043 18.223884884746173 Q 1.5737626427213227 18.52286192084377 1.275731093280009 18.6014693815152 Z " stroke="#000000" stroke-width="0.35 px" style="stroke-width:0.35;stroke-miterlimit:4;stroke-dasharray:none;stroke-linecap:square;fill:#ffffff;fill-opacity:1.0;fill-rule: evenodd"/>
<path id="Extrude_f0026"  d="M 1.3005464315262025 17.17979960553648 L 1.3005464315262025 17.17979960553648 L 1.275731093280009 18.6014693815152 L 1.275731093280009 18.6014693815152 L 1.3005464315262025 17.17979960553648 Z " stroke="#000000" stroke-width="0.35 px" style="stroke-width:0.35;stroke-miterlimit:4;stroke-dasharray:none;stroke-linecap:square;fill:#ffffff;fill-opacity:1.0;fill-rule: evenodd"/>
<path id="Extrude_f0027"  d="M -2.1938493660034917 18.20234336785449 L -2.1938493660034917 18.20234336785449 L 1.3005464315262025 17.17979960553648 L 1.3005464315262025 17.17979960553648 L -2.1938493660034917 18.20234336785449 Z " stroke="#000000" stroke-width="0.35 px" style="stroke-width:0.35;stroke-miterlimit:4;stroke-dasharray:none;stroke-linecap:square;fill:#ffffff;fill-opacity:1.0;fill-rule: evenodd"/>
<path id="Extrude_f0028"  d="M -2.173595500129026 17.042000169031816 L -2.173595500129026 17.042000169031816 L -2.1938493660034917 18.20234336785449 L -2.1938493660034917 18.20234336785449 L -2.173595500129026 17.042000169031816 Z " stroke="#000000" stroke-width="0.35 px" style="stroke-width:0.35;stroke-miterlimit:4;stroke-dasharray:none;stroke-linecap:square;fill:#ffffff;fill-opacity:1.0;fill-rule: evenodd"/>
<path id="Extrude_f0029"  d="M 1.327962771507271 16.015590493844506 L 1.327962771507271 16.015590493844506 L -2.173595500129026 17.042000169031816 L -2.173595500129026 17.042000169031816 L 1.327962771507271 16.015590493844506 Z " stroke="#000000" stroke-width="0.35 px" style="stroke-width:0.35;stroke-miterlimit:4;stroke-dasharray:none;stroke-linecap:square;fill:#ffffff;fill-opacity:1.0;fill-rule: evenodd"/>
<path id="Extrude_f0030"  d="M 1.524762316650986 15.982442078083887 L 1.524762316650986 15.982442078083887 Q 1.4383184107215037 15.98093319409324 1.327962771507271 16.015590493844506 L 1.327962771507271 16.015590493844506 Q 1.4383184107215037 15.98093319409324 1.524762316650986 15.982442078083887 Z " stroke="#000000" stroke-width="0.35 px" style="stroke-width:0.35;stroke-miterlimit:4;stroke-dasharray:none;stroke-linecap:square;fill:#ffffff;fill-opacity:1.0;fill-rule: evenodd"/>
<path id="Extrude_f0031"  d="M 1.8519165775844935 16.483693588335747 L 1.8519165775844935 16.483693588335747 Q 1.8605636435308988 15.988303512047558 1.524762316650986 15.982442078083887 L 1.524762316650986 15.982442078083887 Q 1.8605636435308988 15.988303512047558 1.8519165775844935 16.483693588335747 Z " stroke="#000000" stroke-width="0.35 px" style="stroke-width:0.35;stroke-miterlimit:4;stroke-dasharray:none;stroke-linecap:square;fill:#ffffff;fill-opacity:1.0;fill-rule: evenodd"/>
<path id="Extrude_f0032"  d="M 1.8294032546573653 17.773480995011795 L 1.8294032546573653 17.773480995011795 L 1.8519165775844935 16.483693588335747 L 1.8519165775844935 16.483693588335747 L 1.8294032546573653 17.773480995011795 Z " stroke="#000000" stroke-width="0.35 px" style="stroke-width:0.35;stroke-miterlimit:4;stroke-dasharray:none;stroke-linecap:square;fill:#ffffff;fill-opacity:1.0;fill-rule: evenodd"/>
<path id="Extrude_f0033"  d="M 1.720437756081043 18.223884884746173 L 1.720437756081043 18.223884884746173 Q 1.8251938552167886 18.014637327450963 1.8294032546573653 17.773480995011795 L 1.8294032546573653 17.773480995011795 Q 1.8251938552167886 18.014637327450963 1.720437756081043 18.223884884746173 Z " stroke="#000000" stroke-width="0.35 px" style="stroke-width:0.35;stroke-miterlimit:4;stroke-dasharray:none;stroke-linecap:square;fill:#ffffff;fill-opacity:1.0;fill-rule: evenodd"/>
<path id="Extrude_f0034"  d="M 1.720437756081043 18.223884884746173 Q 1.8251938552167886 18.014637327450963 1.8294032546573653 17.773480995011795 L 1.8519165775844935 16.483693588335747 Q 1.8605636435308988 15.988303512047558 1.524762316650986 15.982442078083887 Q 1.4383184107215037 15.98093319409324 1.327962771507271 16.015590493844506 L -2.173595500129026 17.042000169031816 L -2.1938493660034917 18.20234336785449 L 1.3005464315262025 17.17979960553648 L 1.275731093280009 18.6014693815152 Q 1.5737626427213227 18.52286192084377 1.720437756081043 18.223884884746173 Z " stroke="#000000" stroke-width="0.35 px" style="stroke-width:0.35;stroke-miterlimit:4;stroke-dasharray:none;stroke-linecap:square;fill:#ffffff;fill-opacity:1.0;fill-rule: evenodd"/>
<path id="Extrude_f0035"  d="M 1.8294032546573653 17.773480995011795 L 1.8519165775844935 16.483693588335747 Q 1.8605636435308988 15.988303512047558 1.524762316650986 15.982442078083887 Q 1.4383184107215037 15.98093319409324 1.327962771507271 16.015590493844506 L -2.173595500129026 17.042000169031816 L -2.1938493660034917 18.20234336785449 L 1.3005464315262025 17.17979960553648 L 1.275731093280009 18.6014693815152 Q 1.5737626427213227 18.52286192084377 1.720437756081043 18.223884884746173 Q 1.8251938552167886 18.014637327450963 1.8294032546573653 17.773480995011795 Z " stroke="#000000" stroke-width="0.35 px" style="stroke-width:0.35;stroke-miterlimit:4;stroke-dasharray:none;stroke-linecap:square;fill:#ffffff;fill-opacity:1.0;fill-rule: evenodd"/>
<path id="Extrude_f0036"  d="M 1.2247230765294919 21.523716704013395 L 1.2247230765294919 21.523716704013395 Q 1.7665060058472049 21.37686196602614 1.7782907767074958 20.7017128956128 L 1.7782907767074958 20.7017128956128 Q 1.7665060058472049 21.37686196602614 1.2247230765294919 21.523716704013395 Z " stroke="#000000" stroke-width="0.35 px" style="stroke-width:0.35;stroke-miterlimit:4;stroke-dasharray:none;stroke-linecap:square;fill:#ffffff;fill-opacity:1.0;fill-rule: evenodd"/>
<path id="Extrude_f0037"  d="M 1.2560536984686368 19.728786575251988 L 1.2560536984686368 19.728786575251988 L 1.2247230765294919 21.523716704013395 L 1.2247230765294919 21.523716704013395 L 1.2560536984686368 19.728786575251988 Z " stroke="#000000" stroke-width="0.35 px" style="stroke-width:0.35;stroke-miterlimit:4;stroke-dasharray:none;stroke-linecap:square;fill:#ffffff;fill-opacity:1.0;fill-rule: evenodd"/>
<path id="Extrude_f0038"  d="M 0.07225962954048337 20.07395901890667 L 0.07225962954048337 20.07395901890667 L 1.2560536984686368 19.728786575251988 L 1.2560536984686368 19.728786575251988 L 0.07225962954048337 20.07395901890667 Z " stroke="#000000" stroke-width="0.35 px" style="stroke-width:0.35;stroke-miterlimit:4;stroke-dasharray:none;stroke-linecap:square;fill:#ffffff;fill-opacity:1.0;fill-rule: evenodd"/>
<path id="Extrude_f0039"  d="M 0.06872729342904371 20.276326419197993 L 0.06872729342904371 20.276326419197993 L 0.07225962954048337 20.07395901890667 L 0.07225962954048337 20.07395901890667 L 0.06872729342904371 20.276326419197993 Z " stroke="#000000" stroke-width="0.35 px" style="stroke-width:0.35;stroke-miterlimit:4;stroke-dasharray:none;stroke-linecap:square;fill:#ffffff;fill-opacity:1.0;fill-rule: evenodd"/>
<path id="Extrude_f0040"  d="M -0.4838190083552911 21.039814352815558 L -0.4838190083552911 21.039814352815558 Q 0.05855586775875321 20.859047005579043 0.06872729342904371 20.276326419197993 L 0.06872729342904371 20.276326419197993 Q 0.05855586775875321 20.859047005579043 -0.4838190083552911 21.039814352815558 Z " stroke="#000000" stroke-width="0.35 px" style="stroke-width:0.35;stroke-miterlimit:4;stroke-dasharray:none;stroke-linecap:square;fill:#ffffff;fill-opacity:1.0;fill-rule: evenodd"/>
<path id="Extrude_f0041"  d="M -0.4698598969751435 20.24009739744742 L -0.4698598969751435 20.24009739744742 L -0.4838190083552911 21.039814352815558 L -0.4838190083552911 21.039814352815558 L -0.4698598969751435 20.24009739744742 Z " stroke="#000000" stroke-width="0.35 px" style="stroke-width:0.35;stroke-miterlimit:4;stroke-dasharray:none;stroke-linecap:square;fill:#ffffff;fill-opacity:1.0;fill-rule: evenodd"/>
<path id="Extrude_f0042"  d="M -1.8105165125196376 20.62953613271142 L -1.8105165125196376 20.62953613271142 L -0.4698598969751435 20.24009739744742 L -0.4698598969751435 20.24009739744742 L -1.8105165125196376 20.62953613271142 Z " stroke="#000000" stroke-width="0.35 px" style="stroke-width:0.35;stroke-miterlimit:4;stroke-dasharray:none;stroke-linecap:square;fill:#ffffff;fill-opacity:1.0;fill-rule: evenodd"/>
<path id="Extrude_f0043"  d="M -1.799196013656469 19.980985187199458 L -1.799196013656469 19.980985187199458 L -1.8105165125196376 20.62953613271142 L -1.8105165125196376 20.62953613271142 L -1.799196013656469 19.980985187199458 Z " stroke="#000000" stroke-width="0.35 px" style="stroke-width:0.35;stroke-miterlimit:4;stroke-dasharray:none;stroke-linecap:square;fill:#ffffff;fill-opacity:1.0;fill-rule: evenodd"/>
<path id="Extrude_f0044"  d="M -0.8372274326586528 19.37519065733762 L -0.8372274326586528 19.37519065733762 Q -1.1049715633615724 19.662077090076984 -1.799196013656469 19.980985187199458 L -1.799196013656469 19.980985187199458 Q -1.1049715633615724 19.662077090076984 -0.8372274326586528 19.37519065733762 Z " stroke="#000000" stroke-width="0.35 px" style="stroke-width:0.35;stroke-miterlimit:4;stroke-dasharray:none;stroke-linecap:square;fill:#ffffff;fill-opacity:1.0;fill-rule: evenodd"/>
<path id="Extrude_f0045"  d="M -0.44110211568671875 18.592565210847823 L -0.44110211568671875 18.592565210847823 Q -0.5999904013994968 19.12125122576906 -0.8372274326586528 19.37519065733762 L -0.8372274326586528 19.37519065733762 Q -0.5999904013994968 19.12125122576906 -0.44110211568671875 18.592565210847823 Z " stroke="#000000" stroke-width="0.35 px" style="stroke-width:0.35;stroke-miterlimit:4;stroke-dasharray:none;stroke-linecap:square;fill:#ffffff;fill-opacity:1.0;fill-rule: evenodd"/>
<path id="Extrude_f0046"  d="M 0.10129210509387243 18.41068960840709 L 0.10129210509387243 18.41068960840709 L -0.44110211568671875 18.592565210847823 L -0.44110211568671875 18.592565210847823 L 0.10129210509387243 18.41068960840709 Z " stroke="#000000" stroke-width="0.35 px" style="stroke-width:0.35;stroke-miterlimit:4;stroke-dasharray:none;stroke-linecap:square;fill:#ffffff;fill-opacity:1.0;fill-rule: evenodd"/>
<path id="Extrude_f0047"  d="M 0.09292747127904999 18.889899158713604 L 0.09292747127904999 18.889899158713604 L 0.10129210509387243 18.41068960840709 L 0.10129210509387243 18.41068960840709 L 0.09292747127904999 18.889899158713604 Z " stroke="#000000" stroke-width="0.35 px" style="stroke-width:0.35;stroke-miterlimit:4;stroke-dasharray:none;stroke-linecap:square;fill:#ffffff;fill-opacity:1.0;fill-rule: evenodd"/>
<path id="Extrude_f0048"  d="M 1.2838878832471157 18.540639151148774 L 1.2838878832471157 18.540639151148774 L 0.09292747127904999 18.889899158713604 L 0.09292747127904999 18.889899158713604 L 1.2838878832471157 18.540639151148774 Z " stroke="#000000" stroke-width="0.35 px" style="stroke-width:0.35;stroke-miterlimit:4;stroke-dasharray:none;stroke-linecap:square;fill:#ffffff;fill-opacity:1.0;fill-rule: evenodd"/>
<path id="Extrude_f0049"  d="M 1.4707131315528135 18.50731663338923 L 1.4707131315528135 18.50731663338923 Q 1.3842692256233309 18.505807749398585 1.2838878832471157 18.540639151148774 L 1.2838878832471157 18.540639151148774 Q 1.3842692256233309 18.505807749398585 1.4707131315528135 18.50731663338923 Z " stroke="#000000" stroke-width="0.35 px" style="stroke-width:0.35;stroke-miterlimit:4;stroke-dasharray:none;stroke-linecap:square;fill:#ffffff;fill-opacity:1.0;fill-rule: evenodd"/>
<path id="Extrude_f0050"  d="M 1.807895854390669 19.005639131068186 L 1.807895854390669 19.005639131068186 Q 1.8164887552707432 18.513352169351826 1.4707131315528135 18.50731663338923 L 1.4707131315528135 18.50731663338923 Q 1.8164887552707432 18.513352169351826 1.807895854390669 19.005639131068186 Z " stroke="#000000" stroke-width="0.35 px" style="stroke-width:0.35;stroke-miterlimit:4;stroke-dasharray:none;stroke-linecap:square;fill:#ffffff;fill-opacity:1.0;fill-rule: evenodd"/>
<path id="Extrude_f0051"  d="M 1.7782907767074958 20.7017128956128 L 1.7782907767074958 20.7017128956128 L 1.807895854390669 19.005639131068186 L 1.807895854390669 19.005639131068186 L 1.7782907767074958 20.7017128956128 Z " stroke="#000000" stroke-width="0.35 px" style="stroke-width:0.35;stroke-miterlimit:4;stroke-dasharray:none;stroke-linecap:square;fill:#ffffff;fill-opacity:1.0;fill-rule: evenodd"/>
<path id="Extrude_f0052"  d="M 1.7782907767074958 20.7017128956128 L 1.807895854390669 19.005639131068186 Q 1.8164887552707432 18.513352169351826 1.4707131315528135 18.50731663338923 Q 1.3842692256233309 18.505807749398585 1.2838878832471157 18.540639151148774 L 0.09292747127904999 18.889899158713604 L 0.10129210509387243 18.41068960840709 L -0.44110211568671875 18.592565210847823 Q -0.5999904013994968 19.12125122576906 -0.8372274326586528 19.37519065733762 Q -1.1049715633615724 19.662077090076984 -1.799196013656469 19.980985187199458 L -1.8105165125196376 20.62953613271142 L -0.4698598969751435 20.24009739744742 L -0.4838190083552911 21.039814352815558 Q 0.05855586775875321 20.859047005579043 0.06872729342904371 20.276326419197993 L 0.07225962954048337 20.07395901890667 L 1.2560536984686368 19.728786575251988 L 1.2247230765294919 21.523716704013395 Q 1.7665060058472049 21.37686196602614 1.7782907767074958 20.7017128956128 Z " stroke="#000000" stroke-width="0.35 px" style="stroke-width:0.35;stroke-miterlimit:4;stroke-dasharray:none;stroke-linecap:square;fill:#ffffff;fill-opacity:1.0;fill-rule: evenodd"/>
<path id="Extrude_f0053"  d="M 1.807895854390669 19.005639131068186 Q 1.8164887552707432 18.513352169351826 1.4707131315528135 18.50731663338923 Q 1.3842692256233309 18.505807749398585 1.2838878832471157 18.540639151148774 L 0.09292747127904999 18.889899158713604 L 0.10129210509387243 18.41068960840709 L -0.44110211568671875 18.592565210847823 Q -0.5999904013994968 19.12125122576906 -0.8372274326586528 19.37519065733762 Q -1.1049715633615724 19.662077090076984 -1.799196013656469 19.980985187199458 L -1.8105165125196376 20.62953613271142 L -0.4698598969751435 20.24009739744742 L -0.4838190083552911 21.039814352815558 Q 0.05855586775875321 20.859047005579043 0.06872729342904371 20.276326419197993 L 0.07225962954048337 20.07395901890667 L 1.2560536984686368 19.728786575251988 L 1.2247230765294919 21.523716704013395 Q 1.7665060058472049 21.37686196602614 1.7782907767074958 20.7017128956128 L 1.807895854390669 19.005639131068186 Z " stroke="#000000" stroke-width="0.35 px" style="stroke-width:0.35;stroke-miterlimit:4;stroke-dasharray:none;stroke-linecap:square;fill:#ffffff;fill-opacity:1.0;fill-rule: evenodd"/>
<path id="Extrude_f0054"  d="M 1.1568774620166684 25.410589356268275 L 1.1568774620166684 25.410589356268275 Q 1.392714169475564 25.41470590130943 1.558988047264591 25.161523270449482 L 1.558988047264591 25.161523270449482 Q 1.392714169475564 25.41470590130943 1.1568774620166684 25.410589356268275 Z " stroke="#000000" stroke-width="0.35 px" style="stroke-width:0.35;stroke-miterlimit:4;stroke-dasharray:none;stroke-linecap:square;fill:#ffffff;fill-opacity:1.0;fill-rule: evenodd"/>
<path id="Extrude_f0055"  d="M 1.181236266132358 24.01507440310925 L 1.181236266132358 24.01507440310925 L 1.1568774620166684 25.410589356268275 L 1.1568774620166684 25.410589356268275 L 1.181236266132358 24.01507440310925 Z " stroke="#000000" stroke-width="0.35 px" style="stroke-width:0.35;stroke-miterlimit:4;stroke-dasharray:none;stroke-linecap:square;fill:#ffffff;fill-opacity:1.0;fill-rule: evenodd"/>
<path id="Extrude_f0056"  d="M -0.544588343845307 24.521287251365255 L -0.544588343845307 24.521287251365255 L 1.181236266132358 24.01507440310925 L 1.181236266132358 24.01507440310925 L -0.544588343845307 24.521287251365255 Z " stroke="#000000" stroke-width="0.35 px" style="stroke-width:0.35;stroke-miterlimit:4;stroke-dasharray:none;stroke-linecap:square;fill:#ffffff;fill-opacity:1.0;fill-rule: evenodd"/>
<path id="Extrude_f0057"  d="M -0.5133931345719893 22.734114909033412 L -0.5133931345719893 22.734114909033412 L -0.544588343845307 24.521287251365255 L -0.544588343845307 24.521287251365255 L -0.5133931345719893 22.734114909033412 Z " stroke="#000000" stroke-width="0.35 px" style="stroke-width:0.35;stroke-miterlimit:4;stroke-dasharray:none;stroke-linecap:square;fill:#ffffff;fill-opacity:1.0;fill-rule: evenodd"/>
<path id="Extrude_f0058"  d="M -1.326820036077228 22.997508143458617 L -1.326820036077228 22.997508143458617 L -0.5133931345719893 22.734114909033412 L -0.5133931345719893 22.734114909033412 L -1.326820036077228 22.997508143458617 Z " stroke="#000000" stroke-width="0.35 px" style="stroke-width:0.35;stroke-miterlimit:4;stroke-dasharray:none;stroke-linecap:square;fill:#ffffff;fill-opacity:1.0;fill-rule: evenodd"/>
<path id="Extrude_f0059"  d="M -1.317561678667945 22.467097202716943 L -1.317561678667945 22.467097202716943 L -1.326820036077228 22.997508143458617 L -1.326820036077228 22.997508143458617 L -1.317561678667945 22.467097202716943 Z " stroke="#000000" stroke-width="0.35 px" style="stroke-width:0.35;stroke-miterlimit:4;stroke-dasharray:none;stroke-linecap:square;fill:#ffffff;fill-opacity:1.0;fill-rule: evenodd"/>
<path id="Extrude_f0060"  d="M -1.1318952834948597 21.77613716861302 L -1.1318952834948597 21.77613716861302 Q -1.3105356957781589 22.06457891254274 -1.317561678667945 22.467097202716943 L -1.317561678667945 22.467097202716943 Q -1.3105356957781589 22.06457891254274 -1.1318952834948597 21.77613716861302 Z " stroke="#000000" stroke-width="0.35 px" style="stroke-width:0.35;stroke-miterlimit:4;stroke-dasharray:none;stroke-linecap:square;fill:#ffffff;fill-opacity:1.0;fill-rule: evenodd"/>
<path id="Extrude_f0061"  d="M -0.532200881483635 21.43628952748064 L -0.532200881483635 21.43628952748064 Q -0.9156571821451855 21.429596272855456 -1.1318952834948597 21.77613716861302 L -1.1318952834948597 21.77613716861302 Q -0.9156571821451855 21.429596272855456 -0.532200881483635 21.43628952748064 Z " stroke="#000000" stroke-width="0.35 px" style="stroke-width:0.35;stroke-miterlimit:4;stroke-dasharray:none;stroke-linecap:square;fill:#ffffff;fill-opacity:1.0;fill-rule: evenodd"/>
<path id="Extrude_f0062"  d="M -0.16217669722531536 21.564693538971696 L -0.16217669722531536 21.564693538971696 Q -0.32185404372189463 21.439961145191212 -0.532200881483635 21.43628952748064 L -0.532200881483635 21.43628952748064 Q -0.32185404372189463 21.439961145191212 -0.16217669722531536 21.564693538971696 Z " stroke="#000000" stroke-width="0.35 px" style="stroke-width:0.35;stroke-miterlimit:4;stroke-dasharray:none;stroke-linecap:square;fill:#ffffff;fill-opacity:1.0;fill-rule: evenodd"/>
<path id="Extrude_f0063"  d="M 0.040619492936590174 21.88662123093566 L 0.040619492936590174 21.88662123093566 Q -0.0027210017695806776 21.68942206381887 -0.16217669722531536 21.564693538971696 L -0.16217669722531536 21.564693538971696 Q -0.0027210017695806776 21.68942206381887 0.040619492936590174 21.88662123093566 Z " stroke="#000000" stroke-width="0.35 px" style="stroke-width:0.35;stroke-miterlimit:4;stroke-dasharray:none;stroke-linecap:square;fill:#ffffff;fill-opacity:1.0;fill-rule: evenodd"/>
<path id="Extrude_f0064"  d="M 1.2254659117248878 21.48115970417119 L 1.2254659117248878 21.48115970417119 L 0.040619492936590174 21.88662123093566 L 0.040619492936590174 21.88662123093566 L 1.2254659117248878 21.48115970417119 Z " stroke="#000000" stroke-width="0.35 px" style="stroke-width:0.35;stroke-miterlimit:4;stroke-dasharray:none;stroke-linecap:square;fill:#ffffff;fill-opacity:1.0;fill-rule: evenodd"/>
<path id="Extrude_f0065"  d="M 1.2203434440233036 21.77462568224974 L 1.2203434440233036 21.77462568224974 L 1.2254659117248878 21.48115970417119 L 1.2254659117248878 21.48115970417119 L 1.2203434440233036 21.77462568224974 Z " stroke="#000000" stroke-width="0.35 px" style="stroke-width:0.35;stroke-miterlimit:4;stroke-dasharray:none;stroke-linecap:square;fill:#ffffff;fill-opacity:1.0;fill-rule: evenodd"/>
<path id="Extrude_f0066"  d="M 0.9757793148029921 22.1053735637921 L 0.9757793148029921 22.1053735637921 Q 1.2158516124511443 22.031962540670584 1.2203434440233036 21.77462568224974 L 1.2203434440233036 21.77462568224974 Q 1.2158516124511443 22.031962540670584 0.9757793148029921 22.1053735637921 Z " stroke="#000000" stroke-width="0.35 px" style="stroke-width:0.35;stroke-miterlimit:4;stroke-dasharray:none;stroke-linecap:square;fill:#ffffff;fill-opacity:1.0;fill-rule: evenodd"/>
<path id="Extrude_f0067"  d="M 0.028621930744284985 22.57396110859547 L 0.028621930744284985 22.57396110859547 L 0.9757793148029921 22.1053735637921 L 0.9757793148029921 22.1053735637921 L 0.028621930744284985 22.57396110859547 Z " stroke="#000000" stroke-width="0.35 px" style="stroke-width:0.35;stroke-miterlimit:4;stroke-dasharray:none;stroke-linecap:square;fill:#ffffff;fill-opacity:1.0;fill-rule: evenodd"/>
<path id="Extrude_f0068"  d="M 0.016663057885073274 23.25908447584683 L 0.016663057885073274 23.25908447584683 L 0.028621930744284985 22.57396110859547 L 0.028621930744284985 22.57396110859547 L 0.016663057885073274 23.25908447584683 Z " stroke="#000000" stroke-width="0.35 px" style="stroke-width:0.35;stroke-miterlimit:4;stroke-dasharray:none;stroke-linecap:square;fill:#ffffff;fill-opacity:1.0;fill-rule: evenodd"/>
<path id="Extrude_f0069"  d="M 1.0906221683468704 22.944144048993138 L 1.0906221683468704 22.944144048993138 L 0.016663057885073274 23.25908447584683 L 0.016663057885073274 23.25908447584683 L 1.0906221683468704 22.944144048993138 Z " stroke="#000000" stroke-width="0.35 px" style="stroke-width:0.35;stroke-miterlimit:4;stroke-dasharray:none;stroke-linecap:square;fill:#ffffff;fill-opacity:1.0;fill-rule: evenodd"/>
<path id="Extrude_f0070"  d="M 1.3207854376165904 22.90492644200358 L 1.3207854376165904 22.90492644200358 Q 1.2143929380110734 22.903069354015088 1.0906221683468704 22.944144048993138 L 1.0906221683468704 22.944144048993138 Q 1.2143929380110734 22.903069354015088 1.3207854376165904 22.90492644200358 Z " stroke="#000000" stroke-width="0.35 px" style="stroke-width:0.35;stroke-miterlimit:4;stroke-dasharray:none;stroke-linecap:square;fill:#ffffff;fill-opacity:1.0;fill-rule: evenodd"/>
<path id="Extrude_f0071"  d="M 1.7308808679346774 23.417824750125305 L 1.7308808679346774 23.417824750125305 Q 1.739705904813313 22.912238725958254 1.3207854376165904 22.90492644200358 L 1.3207854376165904 22.90492644200358 Q 1.739705904813313 22.912238725958254 1.7308808679346774 23.417824750125305 Z " stroke="#000000" stroke-width="0.35 px" style="stroke-width:0.35;stroke-miterlimit:4;stroke-dasharray:none;stroke-linecap:square;fill:#ffffff;fill-opacity:1.0;fill-rule: evenodd"/>
<path id="Extrude_f0072"  d="M 1.7086461082058229 24.69165328186053 L 1.7086461082058229 24.69165328186053 L 1.7308808679346774 23.417824750125305 L 1.7308808679346774 23.417824750125305 L 1.7086461082058229 24.69165328186053 Z " stroke="#000000" stroke-width="0.35 px" style="stroke-width:0.35;stroke-miterlimit:4;stroke-dasharray:none;stroke-linecap:square;fill:#ffffff;fill-opacity:1.0;fill-rule: evenodd"/>
<path id="Extrude_f0073"  d="M 1.558988047264591 25.161523270449482 L 1.558988047264591 25.161523270449482 Q 1.7043515922324404 24.937685937198285 1.7086461082058229 24.69165328186053 L 1.7086461082058229 24.69165328186053 Q 1.7043515922324404 24.937685937198285 1.558988047264591 25.161523270449482 Z " stroke="#000000" stroke-width="0.35 px" style="stroke-width:0.35;stroke-miterlimit:4;stroke-dasharray:none;stroke-linecap:square;fill:#ffffff;fill-opacity:1.0;fill-rule: evenodd"/>
<path id="Extrude_f0074"  d="M 1.558988047264591 25.161523270449482 Q 1.7043515922324404 24.937685937198285 1.7086461082058229 24.69165328186053 L 1.7308808679346774 23.417824750125305 Q 1.739705904813313 22.912238725958254 1.3207854376165904 22.90492644200358 Q 1.2143929380110734 22.903069354015088 1.0906221683468704 22.944144048993138 L 0.016663057885073274 23.25908447584683 L 0.028621930744284985 22.57396110859547 L 0.9757793148029921 22.1053735637921 Q 1.2158516124511443 22.031962540670584 1.2203434440233036 21.77462568224974 L 1.2254659117248878 21.48115970417119 L 0.040619492936590174 21.88662123093566 Q -0.0027210017695806776 21.68942206381887 -0.16217669722531536 21.564693538971696 Q -0.32185404372189463 21.439961145191212 -0.532200881483635 21.43628952748064 Q -0.9156571821451855 21.429596272855456 -1.1318952834948597 21.77613716861302 Q -1.3105356957781589 22.06457891254274 -1.317561678667945 22.467097202716943 L -1.326820036077228 22.997508143458617 L -0.5133931345719893 22.734114909033412 L -0.544588343845307 24.521287251365255 L 1.181236266132358 24.01507440310925 L 1.1568774620166684 25.410589356268275 Q 1.392714169475564 25.41470590130943 1.558988047264591 25.161523270449482 Z " stroke="#000000" stroke-width="0.35 px" style="stroke-width:0.35;stroke-miterlimit:4;stroke-dasharray:none;stroke-linecap:square;fill:#ffffff;fill-opacity:1.0;fill-rule: evenodd"/>
<path id="Extrude_f0075"  d="M 1.7086461082058229 24.69165328186053 L 1.7308808679346774 23.417824750125305 Q 1.739705904813313 22.912238725958254 1.3207854376165904 22.90492644200358 Q 1.2143929380110734 22.903069354015088 1.0906221683468704 22.944144048993138 L 0.016663057885073274 23.25908447584683 L 0.028621930744284985 22.57396110859547 L 0.9757793148029921 22.1053735637921 Q 1.2158516124511443 22.031962540670584 1.2203434440233036 21.77462568224974 L 1.2254659117248878 21.48115970417119 L 0.040619492936590174 21.88662123093566 Q -0.0027210017695806776 21.68942206381887 -0.16217669722531536 21.564693538971696 Q -0.32185404372189463 21.439961145191212 -0.532200881483635 21.43628952748064 Q -0.9156571821451855 21.429596272855456 -1.1318952834948597 21.77613716861302 Q -1.3105356957781589 22.06457891254274 -1.317561678667945 22.467097202716943 L -1.326820036077228 22.997508143458617 L -0.5133931345719893 22.734114909033412 L -0.544588343845307 24.521287251365255 L 1.181236266132358 24.01507440310925 L 1.1568774620166684 25.410589356268275 Q 1.392714169475564 25.41470590130943 1.558988047264591 25.161523270449482 Q 1.7043515922324404 24.937685937198285 1.7086461082058229 24.69165328186053 Z " stroke="#000000" stroke-width="0.35 px" style="stroke-width:0.35;stroke-miterlimit:4;stroke-dasharray:none;stroke-linecap:square;fill:#ffffff;fill-opacity:1.0;fill-rule: evenodd"/>
<path id="Extrude_f0076"  d="M 1.0820987190134832 29.69466067371709 L 1.0820987190134832 29.69466067371709 Q 1.6239203376642897 29.545589425321392 1.635271787993933 28.895265271482668 L 1.635271787993933 28.895265271482668 Q 1.6239203376642897 29.545589425321392 1.0820987190134832 29.69466067371709 Z " stroke="#000000" stroke-width="0.35 px" style="stroke-width:0.35;stroke-miterlimit:4;stroke-dasharray:none;stroke-linecap:square;fill:#ffffff;fill-opacity:1.0;fill-rule: evenodd"/>
<path id="Extrude_f0077"  d="M 1.1057262947337052 28.341037767277733 L 1.1057262947337052 28.341037767277733 L 1.0820987190134832 29.69466067371709 L 1.0820987190134832 29.69466067371709 L 1.1057262947337052 28.341037767277733 Z " stroke="#000000" stroke-width="0.35 px" style="stroke-width:0.35;stroke-miterlimit:4;stroke-dasharray:none;stroke-linecap:square;fill:#ffffff;fill-opacity:1.0;fill-rule: evenodd"/>
<path id="Extrude_f0078"  d="M -0.6200905773773413 28.84680731345205 L -0.6200905773773413 28.84680731345205 L 1.1057262947337052 28.341037767277733 L 1.1057262947337052 28.341037767277733 L -0.6200905773773413 28.84680731345205 Z " stroke="#000000" stroke-width="0.35 px" style="stroke-width:0.35;stroke-miterlimit:4;stroke-dasharray:none;stroke-linecap:square;fill:#ffffff;fill-opacity:1.0;fill-rule: evenodd"/>
<path id="Extrude_f0079"  d="M -0.5876186201119369 26.98649012764142 L -0.5876186201119369 26.98649012764142 L -0.6200905773773413 28.84680731345205 L -0.6200905773773413 28.84680731345205 L -0.5876186201119369 26.98649012764142 Z " stroke="#000000" stroke-width="0.35 px" style="stroke-width:0.35;stroke-miterlimit:4;stroke-dasharray:none;stroke-linecap:square;fill:#ffffff;fill-opacity:1.0;fill-rule: evenodd"/>
<path id="Extrude_f0080"  d="M -0.20169969268535892 25.82321745613039 L -0.20169969268535892 25.82321745613039 Q -0.5754469559207109 26.289175953143594 -0.5876186201119369 26.98649012764142 L -0.5876186201119369 26.98649012764142 Q -0.5754469559207109 26.289175953143594 -0.20169969268535892 25.82321745613039 Z " stroke="#000000" stroke-width="0.35 px" style="stroke-width:0.35;stroke-miterlimit:4;stroke-dasharray:none;stroke-linecap:square;fill:#ffffff;fill-opacity:1.0;fill-rule: evenodd"/>
<path id="Extrude_f0081"  d="M 0.9041293885584436 25.32103769007804 L 0.9041293885584436 25.32103769007804 Q 0.20969667759160138 25.308916322019833 -0.20169969268535892 25.82321745613039 L -0.20169969268535892 25.82321745613039 Q 0.20969667759160138 25.308916322019833 0.9041293885584436 25.32103769007804 Z " stroke="#000000" stroke-width="0.35 px" style="stroke-width:0.35;stroke-miterlimit:4;stroke-dasharray:none;stroke-linecap:square;fill:#ffffff;fill-opacity:1.0;fill-rule: evenodd"/>
<path id="Extrude_f0082"  d="M 1.5249294971005662 25.575764226939725 L 1.5249294971005662 25.575764226939725 Q 1.2898021996284423 25.327769634036315 0.9041293885584436 25.32103769007804 L 0.9041293885584436 25.32103769007804 Q 1.2898021996284423 25.327769634036315 1.5249294971005662 25.575764226939725 Z " stroke="#000000" stroke-width="0.35 px" style="stroke-width:0.35;stroke-miterlimit:4;stroke-dasharray:none;stroke-linecap:square;fill:#ffffff;fill-opacity:1.0;fill-rule: evenodd"/>
<path id="Extrude_f0083"  d="M 1.7530064762408366 26.214969038000948 L 1.7530064762408366 26.214969038000948 Q 1.759831274598536 25.823976601950676 1.5249294971005662 25.575764226939725 L 1.5249294971005662 25.575764226939725 Q 1.759831274598536 25.823976601950676 1.7530064762408366 26.214969038000948 Z " stroke="#000000" stroke-width="0.35 px" style="stroke-width:0.35;stroke-miterlimit:4;stroke-dasharray:none;stroke-linecap:square;fill:#ffffff;fill-opacity:1.0;fill-rule: evenodd"/>
<path id="Extrude_f0084"  d="M 1.3135791955757394 27.103041842526565 L 1.3135791955757394 27.103041842526565 Q 1.7437326430983162 26.746266582905996 1.7530064762408366 26.214969038000948 L 1.7530064762408366 26.214969038000948 Q 1.7437326430983162 26.746266582905996 1.3135791955757394 27.103041842526565 Z " stroke="#000000" stroke-width="0.35 px" style="stroke-width:0.35;stroke-miterlimit:4;stroke-dasharray:none;stroke-linecap:square;fill:#ffffff;fill-opacity:1.0;fill-rule: evenodd"/>
<path id="Extrude_f0085"  d="M 1.6571119165252337 27.64404514591362 L 1.6571119165252337 27.64404514591362 Q 1.6664476526007037 27.109201184355054 1.3135791955757394 27.103041842526565 L 1.3135791955757394 27.103041842526565 Q 1.6664476526007037 27.109201184355054 1.6571119165252337 27.64404514591362 Z " stroke="#000000" stroke-width="0.35 px" style="stroke-width:0.35;stroke-miterlimit:4;stroke-dasharray:none;stroke-linecap:square;fill:#ffffff;fill-opacity:1.0;fill-rule: evenodd"/>
<path id="Extrude_f0086"  d="M 1.635271787993933 28.895265271482668 L 1.635271787993933 28.895265271482668 L 1.6571119165252337 27.64404514591362 L 1.6571119165252337 27.64404514591362 L 1.635271787993933 28.895265271482668 Z " stroke="#000000" stroke-width="0.35 px" style="stroke-width:0.35;stroke-miterlimit:4;stroke-dasharray:none;stroke-linecap:square;fill:#ffffff;fill-opacity:1.0;fill-rule: evenodd"/>
<path id="Extrude_f0087"  d="M -0.05736898098940646 27.50037714241259 L -0.05736898098940646 27.50037714241259 L -0.045294040130914315 26.808604243935886 L -0.045294040130914315 26.808604243935886 L -0.05736898098940646 27.50037714241259 Z " stroke="#000000" stroke-width="0.35 px" style="stroke-width:0.35;stroke-miterlimit:4;stroke-dasharray:none;stroke-linecap:square;fill:#ffffff;fill-opacity:1.0;fill-rule: evenodd"/>
<path id="Extrude_f0088"  d="M 1.1335875620453495 27.151338785888605 L 1.1335875620453495 27.151338785888605 L -0.05736898098940646 27.50037714241259 L -0.05736898098940646 27.50037714241259 L 1.1335875620453495 27.151338785888605 Z " stroke="#000000" stroke-width="0.35 px" style="stroke-width:0.35;stroke-miterlimit:4;stroke-dasharray:none;stroke-linecap:square;fill:#ffffff;fill-opacity:1.0;fill-rule: evenodd"/>
<path id="Extrude_f0089"  d="M 0.857514639585544 26.568943031585455 L 0.857514639585544 26.568943031585455 Q 1.1436661333162155 26.57393782448783 1.1335875620453495 27.151338785888605 L 1.1335875620453495 27.151338785888605 Q 1.1436661333162155 26.57393782448783 0.857514639585544 26.568943031585455 Z " stroke="#000000" stroke-width="0.35 px" style="stroke-width:0.35;stroke-miterlimit:4;stroke-dasharray:none;stroke-linecap:square;fill:#ffffff;fill-opacity:1.0;fill-rule: evenodd"/>
<path id="Extrude_f0090"  d="M 0.7255018483925657 26.586815129916577 L 0.7255018483925657 26.586815129916577 Q 0.7981121606391304 26.567906157458548 0.857514639585544 26.568943031585455 L 0.857514639585544 26.568943031585455 Q 0.7981121606391304 26.567906157458548 0.7255018483925657 26.586815129916577 Z " stroke="#000000" stroke-width="0.35 px" style="stroke-width:0.35;stroke-miterlimit:4;stroke-dasharray:none;stroke-linecap:square;fill:#ffffff;fill-opacity:1.0;fill-rule: evenodd"/>
<path id="Extrude_f0091"  d="M -0.045294040130914315 26.808604243935886 L -0.045294040130914315 26.808604243935886 L 0.7255018483925657 26.586815129916577 L 0.7255018483925657 26.586815129916577 L -0.045294040130914315 26.808604243935886 Z " stroke="#000000" stroke-width="0.35 px" style="stroke-width:0.35;stroke-miterlimit:4;stroke-dasharray:none;stroke-linecap:square;fill:#ffffff;fill-opacity:1.0;fill-rule: evenodd"/>
<path id="Extrude_f0092"  d="M 1.635271787993933 28.895265271482668 L 1.6571119165252337 27.64404514591362 Q 1.6664476526007037 27.109201184355054 1.3135791955757394 27.103041842526565 Q 1.7437326430983162 26.746266582905996 1.7530064762408366 26.214969038000948 Q 1.759831274598536 25.823976601950676 1.5249294971005662 25.575764226939725 Q 1.2898021996284423 25.327769634036315 0.9041293885584436 25.32103769007804 Q 0.20969667759160138 25.308916322019833 -0.20169969268535892 25.82321745613039 Q -0.5754469559207109 26.289175953143594 -0.5876186201119369 26.98649012764142 L -0.6200905773773413 28.84680731345205 L 1.1057262947337052 28.341037767277733 L 1.0820987190134832 29.69466067371709 Q 1.6239203376642897 29.545589425321392 1.635271787993933 28.895265271482668 Z M -0.05736898098940646 27.50037714241259 L 1.1335875620453495 27.151338785888605 Q 1.1436661333162155 26.57393782448783 0.857514639585544 26.568943031585455 Q 0.7981121606391304 26.567906157458548 0.7255018483925657 26.586815129916577 L -0.045294040130914315 26.808604243935886 L -0.05736898098940646 27.50037714241259 Z " stroke="#000000" stroke-width="0.35 px" style="stroke-width:0.35;stroke-miterlimit:4;stroke-dasharray:none;stroke-linecap:square;fill:#ffffff;fill-opacity:1.0;fill-rule: evenodd"/>
<path id="Extrude_f0093"  d="M 1.6571119165252337 27.64404514591362 Q 1.6664476526007037 27.109201184355054 1.3135791955757394 27.103041842526565 Q 1.7437326430983162 26.746266582905996 1.7530064762408366 26.214969038000948 Q 1.759831274598536 25.823976601950676 1.5249294971005662 25.575764226939725 Q 1.2898021996284423 25.327769634036315 0.9041293885584436 25.32103769007804 Q 0.20969667759160138 25.308916322019833 -0.20169969268535892 25.82321745613039 Q -0.5754469559207109 26.289175953143594 -0.5876186201119369 26.98649012764142 L -0.6200905773773413 28.84680731345205 L 1.1057262947337052 28.341037767277733 L 1.0820987190134832 29.69466067371709 Q 1.6239203376642897 29.545589425321392 1.635271787993933 28.895265271482668 L 1.6571119165252337 27.64404514591362 Z M 0.7255018483925657 26.586815129916577 L -0.045294040130914315 26.808604243935886 L -0.05736898098940646 27.50037714241259 L 1.1335875620453495 27.151338785888605 Q 1.1436661333162155 26.57393782448783 0.857514639585544 26.568943031585455 Q 0.7981121606391304 26.567906157458548 0.7255018483925657 26.586815129916577 Z " stroke="#000000" stroke-width="0.35 px" style="stroke-width:0.35;stroke-miterlimit:4;stroke-dasharray:none;stroke-linecap:square;fill:#ffffff;fill-opacity:1.0;fill-rule: evenodd"/>
<title>b'Extrude'</title>
</g>
</svg>